<svg xmlns="http://www.w3.org/2000/svg" data-name="Layer 52" viewBox="0 -10 100 125" x="0px" y="0px"><path fill="#ffffff" d="M20.43,31.33a5.65,5.65,0,0,0,2.06-.4s-11.25,11.35-1.94,28C27.31,71,21.88,79.66,21.88,79.66S29.42,79.48,33.54,66l-.9-1.09c-3.28-3.9-7-8.31-7.11-18.21-.07-6.3,1.83-11.46,5.63-15.33C38.31,24.14,49.55,24,50,24h.49a32.81,32.81,0,0,1,15.37,4.15A30.52,30.52,0,0,1,71,31.75a11.08,11.08,0,0,0,1.87-6.6c0-5.6-3.81-15.08-12.33-15.08-3.52,0-6.42.7-8.74.7A5.65,5.65,0,0,1,48.59,10s1,4.53,3.81,5.54l.12,0-.12,0A50.85,50.85,0,0,0,38.2,13.1c-4.24,0-8.41.89-10.91,3.75C21.46,23.52,18.64,28,15.76,28a3.12,3.12,0,0,1-1.24-.27S16.86,31.33,20.43,31.33Z"/><path fill="#ffffff" d="M50,25s-23.74.11-23.5,21.72C26.75,66,41.12,63.57,38.07,80L69.36,90c-5-12.3-.68-15.24,1.3-15.94L47.39,63.13H47.2A9.23,9.23,0,1,1,49.62,45l23.8-9.31C64.84,25.54,52.91,25,50.47,25Z"/><path fill="#ffffff" d="M56.43,53.91a9.18,9.18,0,0,1-.64,3.37l22.9,11.21,6.79-14.83L77.33,35.24,51.05,45.53A9.24,9.24,0,0,1,56.43,53.91Z"/><path fill="#ffffff" d="M55.37,58.19a9.22,9.22,0,0,1-6.11,4.71L79.18,77l-.91-7.56Z"/><circle fill="#ffffff" cx="47.2" cy="53.91" r="8.23"/></svg>