<svg xmlns="http://www.w3.org/2000/svg" version="1.1" viewBox="-5.0 -10.0 110.0 135.0">
 <path fill="#ffffff" d="m28.16 25.633c0.67578-0.99609 1.4414-1.9258 2.2891-2.7734 0.84766-0.84766 1.7773-1.6172 2.7734-2.2891-0.99609-0.67578-1.9258-1.4414-2.7734-2.2891-0.84766-0.84766-1.6172-1.7773-2.2891-2.7734-0.67578 0.99609-1.4414 1.9258-2.2891 2.7734s-1.7773 1.6172-2.7734 2.2891c0.99609 0.67188 1.9258 1.4414 2.7734 2.2891s1.6172 1.7773 2.2891 2.7734zm38.613-5.0625c0.99609 0.67188 1.9258 1.4414 2.7734 2.2891s1.6172 1.7773 2.2891 2.7734c0.67578-0.99609 1.4414-1.9258 2.2891-2.7734s1.7773-1.6172 2.7734-2.2891c-0.99609-0.67578-1.9258-1.4414-2.7734-2.2891s-1.6133-1.7773-2.2891-2.7734c-0.67578 0.99609-1.4414 1.9258-2.2891 2.7734-0.84375 0.84766-1.7734 1.6172-2.7734 2.2891zm-27.621-2.4688 4.2852 5c0.035156 0.035157 0.066406 0.074219 0.097656 0.11328l6.2305 7.2695 6.2852-7.332c0.050781-0.066406 0.10547-0.12891 0.16406-0.19141l4.168-4.8633-3.9414-4.1055-13.348 0.003906zm6 14.328c-4.7031 0.96094-8.9023 3.293-12.172 6.5625-4.3555 4.3555-7.0508 10.371-7.0508 17.02 0 6.6445 2.6953 12.664 7.0508 17.02s10.371 7.0508 17.02 7.0508c6.6445 0 12.664-2.6953 17.02-7.0508s7.0508-10.371 7.0508-17.02c0-6.6445-2.6953-12.664-7.0508-17.02-3.3594-3.3594-7.707-5.7305-12.57-6.6367l4.3164-5.0391c5.9766 1.8242 11.164 5.4688 14.918 10.289 3.9531 5.0781 6.3086 11.465 6.3086 18.406 0 8.2812-3.3555 15.781-8.7852 21.207-5.4258 5.4258-12.926 8.7852-21.207 8.7852s-15.781-3.3555-21.207-8.7852c-5.4258-5.4258-8.7852-12.926-8.7852-21.207 0-6.832 2.2695-13.117 6.0938-18.145 0.03125-0.035157 0.0625-0.074219 0.09375-0.11328 3.6836-4.7969 8.7852-8.4453 14.672-10.324z" fill-rule="evenodd"/>
</svg>