<svg xmlns="http://www.w3.org/2000/svg" version="1.1" viewBox="-5.0 -10.0 110.0 135.0">
 <path fill="#ffffff" d="m27.684 66.09c-0.53125-0.49609-1.1484-0.51562-1.6562-0.27344-0.23047 0.10938-0.44141 0.27344-0.625 0.46875-0.17969 0.19141-0.32422 0.41406-0.42188 0.65234-0.21094 0.51953-0.15234 1.1367 0.37891 1.6367l7.9492 7.4492c0.53125 0.49609 1.1484 0.51562 1.6562 0.27344 0.23047-0.10938 0.44141-0.27344 0.625-0.46875 0.17969-0.19141 0.32422-0.41406 0.42188-0.65234 0.21094-0.51953 0.15234-1.1367-0.37891-1.6367zm-2.75 19.297c-0.078125-0.050781-0.15234-0.11328-0.23047-0.18359l-7.9492-7.4492c-0.082031-0.078125-0.15625-0.16016-0.21484-0.24219-0.027343-0.050781-0.058593-0.097657-0.09375-0.14062-0.23828-0.41016-0.23437-0.85938-0.070312-1.2539 0.097656-0.23828 0.24219-0.46094 0.42188-0.65234 0.18359-0.19531 0.39844-0.35547 0.625-0.46875 0.50391-0.24609 1.125-0.22656 1.6562 0.27344l7.9492 7.4492c0.53125 0.5 0.59375 1.1172 0.37891 1.6367-0.097656 0.23828-0.24219 0.46094-0.42188 0.65234-0.18359 0.19531-0.39844 0.35547-0.625 0.46875-0.375 0.18359-0.8125 0.21875-1.2305 0.019532-0.0625-0.039063-0.12891-0.078125-0.19531-0.10938zm-10.316-5.6836c-0.79297 0.074219-1.5781 0.27344-2.3242 0.59766-0.91406 0.39844-1.7656 0.98828-2.4961 1.7656-1.4297 1.5234-2.1055 3.4844-2.043 5.4219 0.0625 1.9336 0.86328 3.8477 2.3906 5.2773 1.5234 1.4297 3.4844 2.1055 5.4219 2.043 1.9336-0.0625 3.8477-0.86328 5.2773-2.3906 0.73047-0.77734 1.2617-1.6641 1.5977-2.5977 0.27344-0.76172 0.42188-1.5586 0.44531-2.3633-0.054688-0.046875-0.10938-0.097656-0.16406-0.14844l-7.9492-7.4492c-0.054688-0.050781-0.10547-0.10156-0.15625-0.15234zm8.7617-9.0273 7.9492 7.4492c0.53125 0.5 0.59375 1.1172 0.37891 1.6367-0.097656 0.23828-0.24219 0.46094-0.42188 0.65234-0.18359 0.19531-0.39844 0.35547-0.625 0.46875-0.50391 0.24609-1.125 0.22656-1.6562-0.27344l-7.9492-7.4492c-0.53125-0.5-0.59375-1.1172-0.37891-1.6367 0.097657-0.23828 0.24219-0.46094 0.42188-0.65234 0.18359-0.19531 0.39844-0.35547 0.625-0.46875 0.50391-0.24609 1.125-0.22656 1.6562 0.27344zm12.484-11.738 6.375 5.9766 49.379-48.031 0.63281-11.707-11.645 1.3867zm8.8555 12.262c0.42969 0.40234 1.0391 0.49219 1.5508 0.27734l7.5312-2.6133c0.03125-0.011719 0.058594-0.011719 0.085938-0.007812 0.019531 0.003906 0.042969 0.015625 0.066406 0.039062l0.58984 0.55078-8.9062 9.5039-23.996-22.496 8.9062-9.5039 0.58594 0.54688c0.027344 0.023437 0.042969 0.046875 0.046876 0.066406 0.007812 0.023438 0.003906 0.050781-0.003907 0.078125l-2.1484 7.7812c-0.14844 0.53516 0.023437 1.082 0.40234 1.4375l15.293 14.336z" fill-rule="evenodd"/>
</svg>